<svg width="84" height="84" viewBox="0 0 84 84" fill="none" xmlns="http://www.w3.org/2000/svg">
<path d="M41.5296 80.5592C63.085 80.5592 80.5592 63.085 80.5592 41.5296C80.5592 19.9741 63.085 2.5 41.5296 2.5C19.9741 2.5 2.5 19.9741 2.5 41.5296C2.5 63.085 19.9741 80.5592 41.5296 80.5592Z" stroke="#593720" stroke-width="5" stroke-linecap="round" stroke-linejoin="round"/>
<path d="M41.5298 67.8518C56.0672 67.8518 67.8521 56.0669 67.8521 41.5296C67.8521 26.9922 56.0672 15.2073 41.5298 15.2073C26.9924 15.2073 15.2075 26.9922 15.2075 41.5296C15.2075 56.0669 26.9924 67.8518 41.5298 67.8518Z" stroke="#593720" stroke-width="5" stroke-linecap="round" stroke-linejoin="round"/>
<path d="M36.9913 57.4137C40.5004 57.4137 43.345 54.569 43.345 51.06C43.345 47.551 40.5004 44.7064 36.9913 44.7064C33.4823 44.7064 30.6377 47.551 30.6377 51.06C30.6377 54.569 33.4823 57.4137 36.9913 57.4137Z" stroke="#593720" stroke-width="5" stroke-linecap="round" stroke-linejoin="round"/>
<path d="M43.3452 51.0601V25.6454" stroke="#593720" stroke-width="5" stroke-linecap="round" stroke-linejoin="round"/>
<path d="M52.4219 25.6454H43.3452V32.9068H52.4219V25.6454Z" stroke="#593720" stroke-width="5" stroke-linecap="round" stroke-linejoin="round"/>
</svg>
