<svg width="400" height="400" viewBox="0 0 400 400" fill="none" xmlns="http://www.w3.org/2000/svg">
<g clip-path="url(#clip0_38_1060)">
<mask id="mask0_38_1060" style="mask-type:luminance" maskUnits="userSpaceOnUse" x="0" y="0" width="400" height="400">
<path d="M400 0H0V400H400V0Z" fill="white"/>
</mask>
<g mask="url(#mask0_38_1060)">
<path d="M158.135 304.175C100.616 281.138 72.564 215.634 95.6016 158.127C118.639 100.608 184.14 72.5657 241.658 95.5937C299.128 118.63 327.18 184.144 304.183 241.652C281.144 299.12 215.642 327.172 158.135 304.175Z" fill="#855534"/>
<path d="M205.843 184.965C197.62 181.676 188.293 185.667 185.003 193.892C181.673 202.126 185.716 211.482 193.898 214.772C202.123 218.062 211.49 214.07 214.78 205.846C218.07 197.612 214.078 188.295 205.843 184.965ZM196.918 207.33C192.805 205.685 190.8 201.022 192.415 196.91C194.099 192.798 198.752 190.802 202.876 192.407C206.988 194.052 208.984 198.755 207.338 202.868C205.693 206.98 200.99 208.976 196.918 207.33Z" fill="white"/>
<path d="M217.759 155.188C193.076 145.318 165.065 157.304 155.196 181.987C145.316 206.668 157.312 234.681 181.994 244.549C206.666 254.458 234.678 242.474 244.558 217.791C254.467 193.108 242.48 165.057 217.759 155.188ZM187.943 229.666C171.535 223.077 163.541 204.351 170.08 187.943C176.658 171.525 195.383 163.492 211.801 170.072C228.259 176.661 236.252 195.386 229.704 211.793C223.085 228.212 204.401 236.245 187.943 229.666Z" fill="white"/>
<path d="M142.408 169.916C141.361 171.756 141.976 174.057 143.751 175.089C145.554 176.124 147.821 175.497 148.868 173.656C156.215 160.915 167.905 152.303 180.879 148.664C182.878 148.116 184.076 146.026 183.562 144.008C183.011 141.985 180.975 140.802 178.976 141.351C178.897 141.378 178.891 141.416 178.811 141.443C164.056 145.623 150.75 155.442 142.408 169.916Z" fill="white"/>
<path d="M114.819 160.185C116.584 161.216 118.893 160.565 119.935 158.762C131.433 138.726 149.826 125.148 170.222 119.492C172.236 118.907 173.423 116.826 172.909 114.807C172.359 112.783 170.322 111.601 168.322 112.15C168.238 112.215 168.154 112.271 168.048 112.295C145.901 118.535 125.964 133.28 113.477 155.021C112.435 156.824 113.053 159.154 114.819 160.185Z" fill="white"/>
<path d="M129.28 167.636C131.083 168.671 133.359 168.045 134.407 166.204C143.806 149.821 158.846 138.737 175.551 134.077L175.514 134.072C177.551 133.528 178.753 131.41 178.239 129.392C177.688 127.36 175.651 126.187 173.647 126.773C173.567 126.791 173.525 126.823 173.44 126.888C154.953 132.098 138.344 144.339 127.951 162.464C126.907 164.276 127.516 166.605 129.28 167.636Z" fill="white"/>
<path d="M216.279 255.566C216.82 257.589 218.867 258.772 220.872 258.186C220.946 258.196 220.994 258.125 221.022 258.128C235.814 253.955 249.118 244.137 257.437 229.62C258.48 227.817 257.899 225.482 256.097 224.446C254.331 223.416 252.022 224.076 250.98 225.879C243.654 238.662 231.937 247.27 218.957 250.879C216.959 251.42 215.771 253.511 216.279 255.566Z" fill="white"/>
<path d="M226.964 284.77C227.478 286.788 229.551 287.975 231.56 287.427C231.63 287.398 231.719 287.305 231.799 287.277C253.943 281.038 273.913 266.335 286.396 244.555C287.443 242.713 286.828 240.423 285.063 239.392C283.26 238.357 280.987 238.973 279.939 240.824C268.414 260.846 250.053 274.391 229.652 280.084C227.647 280.672 226.45 282.752 226.964 284.77Z" fill="white"/>
<path d="M224.319 265.5C222.321 266.048 221.087 268.123 221.637 270.156C222.151 272.175 224.196 273.349 226.195 272.81C226.275 272.782 226.313 272.71 226.431 272.688C244.88 267.474 261.503 255.196 271.892 237.108C272.939 235.267 272.358 232.933 270.556 231.898C268.79 230.867 266.487 231.489 265.44 233.33C256.034 249.761 240.996 260.837 224.325 265.462L224.319 265.5Z" fill="white"/>
</g>
</g>
<defs>
<clipPath id="clip0_38_1060">
<rect width="400" height="400" fill="white"/>
</clipPath>
</defs>
</svg>
