<svg width="450" height="405" viewBox="0 0 450 405" fill="none" xmlns="http://www.w3.org/2000/svg">
<mask id="mask0_38_1085" style="mask-type:luminance" maskUnits="userSpaceOnUse" x="50" y="5" width="350" height="350">
<path d="M400 5H50V355H400V5Z" fill="white"/>
</mask>
<g mask="url(#mask0_38_1085)">
<path d="M304.664 311.592C304.664 320.109 268.039 327.118 223.532 327.118C179.024 327.118 142.398 320.109 142.398 311.592C142.398 303.075 179.024 296.066 223.532 296.066C268.039 296.066 304.664 303.075 304.664 311.592Z" fill="#B89076"/>
<path d="M231.924 41.9011C183.974 39.2371 156.12 70.3461 143.585 93.3407C142.635 95.0824 142.777 97.1084 143.749 98.6842C142.87 100.482 142.055 102.24 141.362 103.909C131.954 126.56 129.23 152.912 129.23 152.912C129.115 154.013 129.928 155.013 131.031 155.127C132.134 155.242 133.134 154.432 133.249 153.331C133.249 153.331 136.007 127.33 145.094 105.453C145.678 104.046 146.338 102.578 147.063 101.071C149.352 101.607 151.805 100.604 152.982 98.4442C164.216 77.8351 186.098 54.0498 231.106 56.5504C231.515 56.5731 231.912 56.5386 232.307 56.4967C232.695 56.5821 233.086 56.6604 233.494 56.6831C278.502 59.1837 297.603 85.2459 306.474 106.972C307.404 109.249 309.73 110.517 312.064 110.238C312.617 111.817 313.11 113.348 313.534 114.811C320.131 137.56 319.978 163.706 319.978 163.706C319.97 164.811 320.876 165.727 321.983 165.737C323.091 165.746 324.009 164.842 324.019 163.736C324.019 163.736 324.244 137.243 317.415 113.691C316.911 111.955 316.297 110.118 315.623 108.233C316.764 106.775 317.133 104.777 316.382 102.941C306.484 78.7002 282.261 44.6978 234.312 42.0338C233.903 42.011 233.506 42.047 233.111 42.0889C232.723 42.0035 232.332 41.9238 231.924 41.9011Z" fill="#2E2E2E"/>
<path d="M122.892 265.911C119.98 260.178 111.1 240.719 109.417 213.599C109.349 212.51 109.262 210.741 109.238 209.65C108.594 181.221 123.437 153.935 127.51 146.999C128.062 146.059 129.372 145.048 130.407 144.724L134.569 143.421C135.604 143.096 136.323 143.709 136.184 144.792C135.47 150.382 133.55 167.019 133.801 182.688C133.818 183.779 133.872 185.548 133.865 186.64C133.764 205.957 125.846 255.29 124.139 265.705C123.963 266.782 123.385 266.882 122.892 265.911Z" fill="#855534"/>
<path d="M109.259 209.672C109.284 210.763 109.37 212.532 109.438 213.621C111.115 240.732 120.002 260.189 122.917 265.92C123.41 266.891 123.989 266.791 124.166 265.715C124.177 265.653 124.208 265.447 124.219 265.382C113.623 244.418 109.259 209.672 109.259 209.672Z" fill="#F3F0F0"/>
<path d="M130.074 129.941L138.706 132.478C139.51 132.715 140.322 132.245 140.537 131.435C141.373 128.271 143.574 120.474 146.847 112.645C147.17 111.872 147.711 110.624 148.071 109.866C151.117 103.441 155.65 97.4367 157.608 94.9752C158.129 94.3198 157.898 93.6747 157.075 93.5212L145.228 91.3131C144.405 91.1596 143.339 91.5854 142.861 92.2737C134.421 104.427 131.125 116.257 128.897 128.021C128.741 128.845 129.27 129.704 130.074 129.941Z" fill="#F3F0F0"/>
<path d="M318.365 276.367C321.886 270.993 332.84 252.639 337.476 225.872C337.662 224.797 337.943 223.048 338.086 221.966C341.835 193.782 330.065 165.013 326.774 157.667C326.328 156.672 325.136 155.521 324.142 155.083L320.148 153.326C319.154 152.888 318.373 153.418 318.393 154.51C318.492 160.145 318.582 176.894 316.619 192.44C316.481 193.522 316.236 195.274 316.123 196.36C314.113 215.571 316.59 265.483 317.147 276.024C317.205 277.114 317.768 277.278 318.365 276.367Z" fill="#855534"/>
<path d="M338.166 221.984C338.021 223.065 337.74 224.813 337.554 225.888C332.903 252.646 321.928 270.993 318.401 276.365C317.803 277.275 317.239 277.111 317.182 276.022C317.178 275.959 317.169 275.75 317.166 275.685C330.004 256.03 338.166 221.984 338.166 221.984Z" fill="#F3F0F0"/>
<path d="M325.83 140.49L316.97 142.05C316.145 142.195 315.39 141.639 315.266 140.809C314.786 137.572 313.464 129.578 311.079 121.433C310.844 120.629 310.444 119.328 310.171 118.535C307.856 111.811 304.015 105.338 302.342 102.674C301.897 101.965 302.198 101.349 303.033 101.288L315.051 100.413C315.886 100.352 316.899 100.894 317.297 101.632C324.338 114.65 326.302 126.774 327.213 138.712C327.276 139.549 326.655 140.344 325.83 140.49Z" fill="#F3F0F0"/>
<path d="M129.273 153.851C129.273 153.851 121.474 167.096 116.988 187.591" stroke="#855534" stroke-width="5.31327" stroke-linecap="round"/>
<path d="M324.004 164.266C324.004 164.266 330.299 178.299 332.502 199.167" stroke="#855534" stroke-width="5.31327" stroke-linecap="round"/>
<path d="M153.524 92.8614L145.219 91.3116C144.397 91.158 143.33 91.5854 142.853 92.2739C134.417 104.43 131.123 116.263 128.896 128.029C128.74 128.853 129.27 129.713 130.073 129.95L138.701 132.487C139.018 132.58 139.337 132.562 139.62 132.457C139.579 129.488 139.918 124.597 141.697 117.774C144.017 108.877 150.33 98.0148 153.524 92.8614Z" fill="#855534"/>
<path d="M306.633 101.017L315.057 100.402C315.892 100.341 316.904 100.885 317.303 101.622C324.341 114.643 326.304 126.77 327.215 138.711C327.279 139.548 326.657 140.343 325.833 140.489L316.977 142.049C316.652 142.107 316.338 142.051 316.068 141.916C316.438 138.97 316.643 134.072 315.631 127.094C314.31 117.993 309.237 106.495 306.633 101.017Z" fill="#855534"/>
<path d="M294.719 187.965C294.719 187.965 292.276 187.781 289.289 190.272C285.049 193.809 281.217 209.145 277.91 231.491C274.473 254.701 273.314 280.422 275.69 288.148C277.228 293.151 279.643 293.161 279.643 293.161C288.756 259.083 296.276 224.62 294.719 187.965Z" fill="#855534"/>
<path d="M309.989 190.176L294.82 187.944C294.04 187.828 292.564 188.328 291.497 188.865C294.201 188.201 289.243 229.902 288.615 235.248C286.632 252.119 280.587 291.81 276.856 290.907C277.613 292.208 278.517 292.895 279.685 293.108L294.854 295.34C296.297 295.553 297.627 294.554 297.836 293.103L312.216 193.179C312.426 191.728 311.432 190.389 309.989 190.176Z" fill="#855534"/>
<path d="M325.529 197.405L322.653 196.986C321.343 196.795 320.139 197.701 319.95 199.016L307.013 289.548C306.824 290.863 307.726 292.075 309.035 292.266L310.539 292.484C311.848 292.675 317.507 281.985 319.142 270.543L327.817 209.851C328.006 208.535 326.838 197.596 325.529 197.405Z" fill="#855534"/>
<path d="M309.105 189.997C309.59 190.068 310.839 190.222 311.494 190.894C311.657 191.061 311.797 191.25 311.911 191.455C312.368 192.274 312.108 193.892 311.974 194.838L298.185 291.389C298.051 292.335 297.846 293.961 297.178 294.617C297.012 294.781 296.823 294.923 296.62 295.037C295.805 295.494 294.192 295.231 293.25 295.095C292.292 294.923 291.377 294.57 290.55 294.055L288.951 293.129C288.748 293.012 288.676 292.748 288.793 292.544C288.909 292.341 289.02 292.325 289.178 292.33L294.538 292.53C294.839 292.541 295.095 292.302 295.106 292C295.117 291.697 295.032 291.65 294.891 291.541L294.546 291.274C294.154 290.974 294.079 290.404 294.377 290.011L295.568 289.463C296.212 289.258 296.575 288.558 296.37 287.91L295.951 287.229C295.352 286.415 295.388 285.286 296.037 284.514C296.391 283.916 296.193 283.132 295.597 282.775L291.767 280.668C291.639 280.596 291.591 280.43 291.662 280.3C291.733 280.171 291.833 280.143 291.948 280.166L296.184 281.007C296.58 281.086 296.97 280.821 297.049 280.423L296.69 279.479C296.149 278.628 296.265 277.506 296.969 276.787L297.366 276.383C298.029 275.705 298.023 274.599 297.351 273.928L296.895 273.471C296.448 273.025 296.445 272.288 296.889 271.84C297.577 271.443 297.716 271.063 297.57 270.748C297.425 270.433 297.347 270.455 297.17 270.404L296.597 270.215C295.912 269.99 295.534 269.239 295.757 268.552C296.273 267.515 295.981 266.624 295.266 266.259L294.551 265.856C294.258 265.687 294.156 265.306 294.323 265.012C294.491 264.717 294.574 264.741 294.755 264.71L297.413 264.267C297.756 264.21 297.99 263.879 297.932 263.535C297.874 263.191 297.791 263.19 297.632 263.094L294.988 261.507C294.685 261.325 294.586 260.925 294.766 260.621C294.947 260.317 295.021 260.348 295.204 260.316L298.265 259.771C298.72 259.691 299.026 259.251 298.945 258.794C298.298 257.74 298.457 256.955 299.027 256.573L299.58 256.16C299.936 255.867 299.989 255.332 299.696 254.974L298.391 254.494C298.11 254.43 297.929 254.145 297.993 253.862C298.057 253.58 298.151 253.549 298.314 253.486L299.944 252.849C300.306 252.708 300.487 252.291 300.345 251.927C300.204 251.563 300.141 251.606 299.967 251.531L296.084 249.839C295.874 249.747 295.774 249.499 295.866 249.288C295.957 249.076 296.065 249.046 296.222 249.037L300.347 248.765C300.582 248.749 300.763 248.544 300.747 248.308C300.731 248.072 300.638 248.007 300.494 247.943L300.285 247.848C299.871 247.662 299.684 247.168 299.869 246.753L302.03 245.442C302.443 245.231 302.612 244.715 302.4 244.3L301.861 243.847C301.419 243.636 301.226 243.099 301.435 242.655C302.23 241.963 302.339 241.368 302.045 240.94L298.855 238.963C298.541 238.778 298.433 238.366 298.617 238.051C298.8 237.736 298.871 237.775 299.054 237.737L302.934 236.928C303.387 236.834 303.683 236.38 303.588 235.925L302.975 235.167C302.645 234.884 302.605 234.378 302.886 234.047C303.509 233.58 303.464 233.299 303.266 233.154C303.067 233.009 302.938 233.041 302.787 233.124L298.587 231.885C298.374 231.822 298.248 231.594 298.311 231.38C298.373 231.166 298.478 231.121 298.629 231.094L304.121 230.108C304.42 230.054 304.622 229.762 304.568 229.462C304.514 229.162 304.422 229.135 304.26 229.058L299.584 226.817C299.448 226.752 299.39 226.588 299.454 226.452C299.519 226.316 299.619 226.282 299.736 226.298L303.844 226.841C304.245 226.895 304.616 226.608 304.668 226.206L304.149 225.15C303.722 224.568 303.847 223.737 304.427 223.309L305.108 222.998C305.566 222.822 305.8 222.298 305.624 221.839L304.195 220.675C303.844 220.437 303.749 219.952 303.985 219.601C304.701 219.048 304.728 218.634 304.494 218.366C304.26 218.099 304.212 218.154 304.037 218.146L302.107 217.043C301.866 216.904 301.779 216.589 301.917 216.346C302.055 216.104 302.157 216.099 302.329 216.089L304.687 215.957C304.992 215.939 305.23 215.673 305.212 215.366C305.195 215.06 305.108 215.022 304.956 214.926L301.545 212.73C301.319 212.585 301.253 212.279 301.398 212.051C301.542 211.824 301.648 211.823 301.817 211.826L305.864 211.895C306.08 211.899 306.261 211.722 306.264 211.506C306.267 211.289 306.183 211.214 306.048 211.146L305.879 211.059C305.562 210.899 305.432 210.509 305.591 210.191C305.751 209.874 305.827 209.901 306.008 209.855L307.165 209.561C307.506 209.474 307.714 209.121 307.627 208.778C307.54 208.435 307.458 208.445 307.292 208.361L301.797 205.603C301.609 205.508 301.531 205.275 301.625 205.086C301.719 204.897 301.83 204.869 301.978 204.873L305.918 204.975C306.251 204.984 306.534 204.714 306.542 204.379C306.55 204.044 306.468 204.017 306.327 203.897C305.997 203.382 306.145 202.686 306.657 202.355C307.2 201.964 307.205 201.523 306.943 201.253C306.212 200.965 306.064 200.687 306.143 200.429C306.222 200.17 306.321 200.143 306.482 200.099L306.767 199.99C307.116 199.858 307.293 199.459 307.16 199.108C307.027 198.757 306.956 198.791 306.782 198.719L303.498 197.368C303.268 197.273 303.157 197.005 303.251 196.773C303.345 196.542 303.451 196.516 303.613 196.495L307.564 195.998C308.042 195.938 308.384 195.493 308.324 195.013C307.94 193.991 308.247 193.431 308.773 193.28C309.309 192.854 309.147 192.377 308.759 192.184L307.023 191.415C306.614 191.182 306.466 190.654 306.696 190.244C307.768 189.732 308.461 189.772 309.105 189.997Z" fill="#855534"/>
<path d="M284.638 218.995C284.638 218.995 281.932 228.377 280.667 237.707C279.403 247.036 278.853 258.273 279.991 258.092C281.13 257.91 283.664 240.79 283.935 236.872C284.207 232.954 286.386 219.446 284.638 218.995Z" fill="#F3F0F0"/>
<path d="M309.037 292.28C307.728 292.087 306.824 290.879 307.012 289.567L319.908 199.015C320.09 197.745 321.223 196.867 322.486 196.977L309.037 292.28Z" fill="#F3F0F0"/>
<path d="M319.074 191.42L315.07 190.837C313.624 190.626 312.291 191.626 312.084 193.078L297.805 293.054C297.597 294.506 298.595 295.844 300.042 296.055L304.046 296.638C305.492 296.849 306.824 295.849 307.032 294.396L321.311 194.421C321.519 192.969 320.52 191.631 319.074 191.42Z" fill="#855534"/>
<path d="M311.665 191.107C311.748 191.214 311.843 191.314 311.909 191.434C312.085 191.747 312.137 192.187 312.151 192.651C312.345 192.038 312.749 191.536 313.268 191.209L298.476 295.236C298.056 294.774 297.8 294.17 297.786 293.516C297.644 293.958 297.47 294.366 297.214 294.618C297.126 294.705 297.017 294.767 296.917 294.841L311.665 191.107Z" fill="#F3F0F0"/>
<path d="M155.531 180.396C155.531 180.396 158.007 180.463 160.758 183.248C164.665 187.203 166.98 202.854 168.063 225.429C169.189 248.876 167.777 274.589 164.613 282.033C162.565 286.853 160.135 286.616 160.135 286.616C154.393 251.773 150.288 216.71 155.531 180.396Z" fill="#855534"/>
<path d="M140.108 181.062L155.577 180.405C156.372 180.372 157.805 181.019 158.824 181.664C156.174 180.725 156.944 222.742 157.036 228.127C157.326 245.124 159.393 285.25 163.233 284.736C162.341 285.952 161.364 286.542 160.168 286.633L144.698 287.29C143.227 287.353 141.992 286.224 141.929 284.757L137.566 183.821C137.503 182.355 138.637 181.124 140.108 181.062Z" fill="#855534"/>
<path d="M123.944 186.809L126.876 186.686C128.211 186.629 129.332 187.652 129.39 188.98L133.347 280.375C133.404 281.703 132.377 282.816 131.042 282.873L129.511 282.938C128.176 282.994 123.556 271.78 123.056 260.229L120.403 198.959C120.346 197.631 122.609 186.865 123.944 186.809Z" fill="#855534"/>
<path d="M141.006 181.037C140.513 181.059 139.242 181.085 138.518 181.686C138.337 181.836 138.178 182.009 138.043 182.201C137.503 182.97 137.599 184.607 137.641 185.562L141.865 283.029C141.907 283.984 141.95 285.622 142.555 286.343C142.706 286.523 142.881 286.683 143.074 286.817C143.848 287.355 145.493 287.258 146.453 287.217C147.432 287.144 148.388 286.886 149.27 286.458L150.969 285.699C151.185 285.604 151.282 285.348 151.186 285.133C151.09 284.918 150.981 284.891 150.821 284.88L145.416 284.534C145.113 284.514 144.877 284.25 144.896 283.949C144.916 283.647 145.007 283.608 145.16 283.514L145.534 283.284C145.956 283.025 146.09 282.465 145.829 282.045L144.687 281.378C144.06 281.109 143.766 280.375 144.037 279.752L144.526 279.117C145.208 278.368 145.283 277.242 144.709 276.407C144.412 275.777 144.691 275.016 145.324 274.721L149.382 273.013C149.519 272.955 149.584 272.794 149.525 272.658C149.467 272.522 149.367 272.484 149.249 272.495L144.911 272.901C144.505 272.939 144.14 272.638 144.101 272.234L144.555 271.331C145.184 270.539 145.178 269.409 144.543 268.623L144.185 268.181C143.586 267.44 143.703 266.34 144.444 265.74L144.95 265.333C145.444 264.933 145.519 264.201 145.116 263.71C144.465 263.245 144.365 262.853 144.542 262.553C144.719 262.254 144.794 262.285 144.978 262.253L145.574 262.122C146.284 261.967 146.738 261.26 146.582 260.554C146.167 259.47 146.549 258.613 147.306 258.323L148.062 257.994C148.373 257.856 148.514 257.487 148.376 257.177C148.237 256.868 148.152 256.881 147.972 256.833L145.347 256.121C145.009 256.028 144.806 255.676 144.899 255.34C144.991 255.004 145.073 255.012 145.243 254.932L148.057 253.622C148.38 253.472 148.52 253.083 148.369 252.763C148.218 252.442 148.14 252.466 147.959 252.415L144.937 251.563C144.489 251.437 144.226 250.965 144.353 250.519C145.108 249.536 145.028 248.74 144.493 248.302L143.979 247.836C143.649 247.508 143.65 246.97 143.98 246.643L145.338 246.298C145.628 246.262 145.837 245.998 145.801 245.71C145.765 245.422 145.673 245.381 145.516 245.302L143.943 244.502C143.593 244.325 143.452 243.892 143.63 243.544C143.809 243.197 143.869 243.249 144.051 243.191L148.12 241.901C148.34 241.831 148.464 241.593 148.393 241.374C148.323 241.156 148.218 241.114 148.062 241.089L143.944 240.398C143.71 240.359 143.549 240.136 143.588 239.904C143.627 239.672 143.726 239.616 143.878 239.566L144.099 239.494C144.533 239.35 144.77 238.877 144.626 238.446L142.585 236.921C142.19 236.669 142.075 236.138 142.328 235.746L142.914 235.352C143.379 235.187 143.625 234.672 143.459 234.209C142.731 233.441 142.681 232.837 143.021 232.441L146.422 230.799C146.756 230.648 146.903 230.247 146.75 229.915C146.597 229.583 146.524 229.614 146.344 229.557L142.527 228.359C142.081 228.219 141.83 227.737 141.97 227.294L142.66 226.601C143.02 226.353 143.112 225.856 142.862 225.497C142.283 224.968 142.356 224.692 142.569 224.569C142.783 224.446 142.909 224.49 143.052 224.588L147.396 223.784C147.617 223.744 147.765 223.528 147.724 223.308C147.683 223.089 147.583 223.034 147.434 222.992L142.014 221.453C141.719 221.369 141.545 221.058 141.629 220.764C141.713 220.471 141.809 220.455 141.978 220.394L146.899 218.641C147.042 218.59 147.118 218.432 147.066 218.289C147.015 218.147 146.918 218.104 146.798 218.108L142.618 218.231C142.21 218.242 141.865 217.921 141.853 217.515L142.48 216.518C142.967 215.982 142.923 215.14 142.384 214.656L141.731 214.277C141.288 214.056 141.106 213.513 141.328 213.072L142.881 212.06C143.257 211.859 143.401 211.386 143.198 211.011C142.534 210.389 142.547 209.976 142.809 209.733C143.072 209.491 143.113 209.55 143.29 209.561L145.339 208.659C145.597 208.546 145.714 208.241 145.6 207.984C145.486 207.728 145.384 207.714 145.212 207.687L142.855 207.315C142.549 207.267 142.338 206.979 142.386 206.675C142.435 206.371 142.527 206.343 142.688 206.263L146.333 204.425C146.574 204.304 146.672 204.004 146.55 203.764C146.428 203.524 146.321 203.513 146.151 203.498L142.078 203.154C141.86 203.136 141.697 202.944 141.714 202.726C141.732 202.509 141.826 202.444 141.969 202.39L142.147 202.321C142.48 202.194 142.649 201.818 142.521 201.486C142.393 201.155 142.315 201.175 142.137 201.111L141.004 200.699C140.671 200.578 140.496 200.206 140.619 199.875C140.741 199.543 140.82 199.56 140.996 199.493L146.791 197.307C146.99 197.233 147.091 197.01 147.016 196.812C146.94 196.614 146.832 196.575 146.683 196.564L142.715 196.264C142.378 196.239 142.122 195.942 142.148 195.606C142.173 195.271 142.257 195.255 142.41 195.15C142.793 194.673 142.714 193.963 142.234 193.581C141.728 193.137 141.768 192.7 142.058 192.458C142.821 192.245 142.995 191.983 142.941 191.717C142.887 191.451 142.792 191.415 142.634 191.354L142.359 191.218C142.021 191.05 141.883 190.636 142.052 190.3C142.221 189.965 142.288 190.005 142.47 189.951L145.904 188.941C146.144 188.87 146.283 188.614 146.212 188.375C146.141 188.136 146.036 188.099 145.876 188.062L141.957 187.163C141.482 187.055 141.183 186.579 141.292 186.108C141.778 185.131 141.526 184.542 141.014 184.337C140.518 183.859 140.728 183.4 141.137 183.249L142.959 182.659C143.393 182.469 143.593 181.96 143.402 181.528C142.378 180.909 141.678 180.879 141.008 181.037C140.338 181.195 141.006 181.037 141.006 181.037Z" fill="#855534"/>
<path d="M162.512 212.3C162.512 212.3 164.298 221.911 164.639 231.322C164.979 240.732 164.411 251.968 163.285 251.671C162.16 251.374 161.32 234.081 161.437 230.157C161.554 226.233 160.711 212.571 162.512 212.3Z" fill="#F3F0F0"/>
<path d="M131.046 282.862C132.379 282.8 133.403 281.691 133.346 280.367L129.359 188.979C129.303 187.697 128.25 186.707 126.974 186.691L131.046 282.862Z" fill="#F3F0F0"/>
<path d="M130.938 181.478L135.02 181.305C136.495 181.243 137.732 182.372 137.795 183.838L142.169 284.762C142.232 286.228 141.096 287.459 139.622 287.521L135.54 287.694C134.065 287.756 132.828 286.625 132.765 285.159L128.391 184.236C128.328 182.77 129.464 181.54 130.938 181.478Z" fill="#855534"/>
<path d="M138.328 181.912C138.233 182.01 138.129 182.102 138.051 182.213C137.844 182.508 137.747 182.938 137.688 183.399C137.554 182.77 137.199 182.229 136.71 181.853L141.273 286.835C141.739 286.418 142.057 285.841 142.136 285.191C142.235 285.646 142.369 286.069 142.601 286.345C142.682 286.441 142.784 286.515 142.878 286.598L138.328 181.912Z" fill="#F3F0F0"/>
<g opacity="0.448884">
<path d="M192.645 165.754L192.704 168.094L192.704 168.096L192.71 168.356L192.763 170.438L192.949 177.839C191.346 177.911 189.642 177.868 188.102 178.876C186.18 180.133 185.653 182.072 186.723 183.715C187.937 185.578 190.696 185.466 192.347 184.483C193.697 183.679 194.591 182.465 194.516 179.462L194.286 170.305C195.23 170.268 196.176 170.303 196.703 170.407C198.374 170.738 199.654 171.323 201.592 173.583C201.592 173.583 200.567 169.33 197.857 167.676C196.137 166.626 192.647 165.753 192.647 165.753L192.645 165.754Z" fill="#2E2E2E"/>
</g>
<g opacity="0.448884">
<path d="M183.997 144.315C182.545 145.831 181.675 147.428 181.415 149.062C181.122 150.905 181.485 152.718 182.492 154.446C183.558 156.287 185.022 157.37 186.841 157.664C187.452 157.763 188.031 157.801 188.572 157.78C188.623 158.415 188.675 159.047 188.721 159.671C188.77 160.514 188.749 161.24 188.655 161.826C188.525 162.638 188.21 163.282 187.715 163.741C187.181 164.236 186.556 164.416 185.794 164.294C185.463 164.24 185.178 164.126 184.934 163.948C185.244 163.907 185.532 163.801 185.791 163.635C186.293 163.314 186.604 162.809 186.711 162.134C186.812 161.485 186.701 160.898 186.377 160.391C186.033 159.836 185.527 159.501 184.873 159.395C184.204 159.286 183.569 159.501 183.015 160.026C182.524 160.489 182.22 161.062 182.115 161.726C181.957 162.719 182.255 163.608 183.003 164.367C183.659 165.033 184.481 165.448 185.444 165.604C185.993 165.693 186.531 165.68 187.042 165.565C187.462 165.47 187.873 165.304 188.265 165.074C189.213 164.515 189.773 163.719 189.934 162.706C190.057 161.935 190.104 161.011 190.072 159.951L189.929 157.555C190.886 157.332 191.716 156.842 192.397 156.103C193.119 155.323 193.574 154.364 193.751 153.252C193.969 151.887 193.759 150.61 193.125 149.457C192.431 148.193 191.387 147.44 190.025 147.219C189.868 147.194 189.701 147.18 189.527 147.176L189.412 144.239C190.567 143.422 191.541 142.348 192.308 141.046C193.067 139.753 193.576 138.324 193.819 136.798C193.961 135.901 193.942 134.77 193.763 133.434C193.515 131.622 193.01 130.678 192.214 130.549C191.932 130.504 191.606 130.619 191.195 130.919C190.193 131.672 189.427 132.624 188.916 133.748C188.522 134.606 188.206 135.774 187.975 137.219C187.86 137.939 187.859 139.181 187.975 141.014C186.132 142.371 184.795 143.481 183.997 144.315ZM191.235 153.033C191.147 153.983 190.532 155.533 189.845 155.861L189.651 150.688C190.648 150.981 191.336 151.954 191.235 153.033ZM189.197 138.895C189.344 137.974 189.669 136.992 190.164 135.974C190.79 134.702 191.304 134.349 191.624 134.276C191.711 134.257 191.796 134.254 191.883 134.268C192.287 134.334 192.675 134.545 192.505 135.617C192.361 136.526 191.909 137.461 191.166 138.397C190.567 139.151 189.896 139.766 189.168 140.226C189.108 139.841 189.117 139.395 189.197 138.895L189.197 138.895ZM188.105 145.097L188.165 147.32C187.4 147.556 186.712 147.98 186.117 148.581C185.432 149.281 185.012 150.085 184.871 150.97C184.726 151.887 184.852 152.753 185.247 153.538C185.452 153.956 185.751 154.339 186.105 154.661C186.687 155.188 187.411 155.221 187.549 154.978C187.689 154.735 187.297 154.295 187.011 153.731C186.847 153.411 186.788 153.04 186.827 152.614C186.912 151.71 187.526 150.985 188.33 150.714L188.526 156.449C188.133 156.493 187.699 156.478 187.234 156.402C186.039 156.209 185.011 155.609 184.178 154.616C183.307 153.585 182.974 152.508 183.162 151.325C183.52 149.084 185.183 146.991 188.105 145.097Z" fill="#2E2E2E"/>
</g>
<g opacity="0.448884">
<path d="M217.596 140.308L207.605 141.316L207.559 142.453L207.435 145.551L207.251 150.137C205.988 150.111 204.651 149.99 203.39 150.704C201.814 151.596 201.3 153.095 202.057 154.443C202.915 155.973 205.089 156.026 206.437 155.337C207.54 154.773 208.305 153.864 208.4 151.496L208.642 145.43L216.219 144.665L216.027 149.479C214.763 149.453 213.426 149.331 212.165 150.046C210.589 150.938 210.075 152.437 210.831 153.786C211.69 155.315 213.864 155.368 215.212 154.679C216.315 154.115 217.079 153.206 217.174 150.837L217.426 144.543L217.534 141.842L217.596 140.308Z" fill="#2E2E2E"/>
</g>
<g opacity="0.448884">
<path d="M265.443 169.59L265.12 171.882L265.119 171.884L265.084 172.138L264.796 174.178L263.773 181.427C262.202 181.236 260.552 180.916 258.891 181.649C256.816 182.562 255.988 184.367 256.762 186.144C257.64 188.159 260.341 188.499 262.107 187.809C263.551 187.244 264.618 186.207 265.033 183.265L266.299 174.296C267.223 174.414 268.138 174.602 268.633 174.789C270.204 175.384 271.354 176.164 272.872 178.684C272.872 178.684 272.567 174.368 270.2 172.314C268.698 171.01 265.446 169.59 265.446 169.59L265.443 169.59Z" fill="#2E2E2E"/>
</g>
<g opacity="0.448884">
<path d="M269.187 149.245C267.858 150.854 267.112 152.501 266.973 154.141C266.816 155.99 267.306 157.76 268.429 159.399C269.619 161.146 271.147 162.111 272.969 162.269C273.582 162.322 274.158 162.317 274.692 162.256C274.789 162.882 274.887 163.504 274.977 164.12C275.087 164.952 275.118 165.673 275.067 166.262C274.998 167.075 274.732 167.738 274.275 168.229C273.782 168.759 273.176 168.984 272.413 168.918C272.081 168.89 271.79 168.798 271.536 168.639C271.84 168.575 272.118 168.45 272.362 168.266C272.836 167.911 273.108 167.387 273.164 166.71C273.218 166.059 273.065 165.485 272.707 165.006C272.327 164.482 271.801 164.187 271.145 164.13C270.475 164.071 269.862 164.332 269.351 164.892C268.898 165.388 268.639 165.978 268.583 166.645C268.498 167.64 268.858 168.5 269.654 169.197C270.352 169.809 271.196 170.16 272.161 170.244C272.711 170.291 273.243 170.239 273.741 170.087C274.15 169.962 274.545 169.767 274.916 169.51C275.815 168.886 276.312 168.055 276.398 167.039C276.464 166.266 276.444 165.347 276.335 164.298L276.021 161.933C276.951 161.641 277.739 161.095 278.359 160.312C279.018 159.485 279.399 158.501 279.494 157.386C279.611 156.016 279.31 154.766 278.6 153.669C277.82 152.468 276.732 151.797 275.367 151.679C275.209 151.666 275.044 151.664 274.871 151.673L274.544 148.77C275.629 147.874 276.515 146.738 277.181 145.391C277.84 144.053 278.24 142.598 278.369 141.068C278.446 140.169 278.345 139.048 278.071 137.737C277.694 135.958 277.125 135.06 276.327 134.991C276.045 134.967 275.731 135.105 275.345 135.433C274.408 136.253 273.717 137.254 273.293 138.406C272.965 139.286 272.736 140.466 272.612 141.916C272.55 142.638 272.64 143.87 272.887 145.678C271.16 147.16 269.917 148.359 269.187 149.245ZM276.986 157.353C276.967 158.301 276.471 159.884 275.815 160.26L275.247 155.146C276.256 155.362 277.008 156.276 276.986 157.353ZM273.944 143.487C274.023 142.564 274.273 141.566 274.69 140.521C275.218 139.214 275.702 138.826 276.013 138.73C276.099 138.705 276.182 138.695 276.27 138.703C276.674 138.738 277.074 138.919 276.983 139.994C276.906 140.906 276.527 141.866 275.858 142.848C275.319 143.641 274.699 144.299 274.012 144.809C273.925 144.432 273.901 143.99 273.944 143.488L273.944 143.487ZM273.311 149.717L273.532 151.916C272.791 152.207 272.141 152.678 271.595 153.317C270.967 154.062 270.609 154.89 270.534 155.777C270.456 156.698 270.644 157.546 271.092 158.296C271.326 158.695 271.649 159.053 272.024 159.346C272.638 159.826 273.357 159.805 273.476 159.553C273.597 159.303 273.178 158.895 272.853 158.357C272.668 158.052 272.582 157.689 272.59 157.264C272.608 156.361 273.164 155.597 273.941 155.268L274.55 160.94C274.164 161.012 273.734 161.029 273.267 160.989C272.069 160.885 271.008 160.366 270.111 159.444C269.174 158.486 268.766 157.443 268.867 156.256C269.059 154.008 270.554 151.81 273.311 149.717Z" fill="#2E2E2E"/>
</g>
<g opacity="0.448884">
<path d="M260.903 142.981L250.995 143.636L250.911 144.757L250.683 147.815L250.345 152.34C249.097 152.271 247.78 152.105 246.509 152.768C244.921 153.595 244.362 155.059 245.064 156.417C245.86 157.958 248.006 158.085 249.362 157.45C250.471 156.931 251.258 156.059 251.433 153.722L251.88 147.736L259.393 147.239L259.038 151.99C257.791 151.921 256.474 151.755 255.202 152.418C253.615 153.245 253.056 154.709 253.757 156.068C254.553 157.609 256.7 157.735 258.056 157.1C259.165 156.581 259.951 155.708 260.126 153.371L260.59 147.16L260.789 144.495L260.903 142.981Z" fill="#2E2E2E"/>
</g>
</g>
</svg>
