<svg width="84" height="84" viewBox="0 0 84 84" fill="none" xmlns="http://www.w3.org/2000/svg">
<path d="M41.5296 80.5592C63.085 80.5592 80.5592 63.085 80.5592 41.5296C80.5592 19.9741 63.085 2.5 41.5296 2.5C19.9741 2.5 2.5 19.9741 2.5 41.5296C2.5 63.085 19.9741 80.5592 41.5296 80.5592Z" stroke="#FFF1D6" stroke-width="5" stroke-linecap="round" stroke-linejoin="round"/>
<path d="M41.5296 67.8518C56.0669 67.8518 67.8518 56.0669 67.8518 41.5296C67.8518 26.9922 56.0669 15.2073 41.5296 15.2073C26.9922 15.2073 15.2073 26.9922 15.2073 41.5296C15.2073 56.0669 26.9922 67.8518 41.5296 67.8518Z" stroke="#FFF1D6" stroke-width="5" stroke-linecap="round" stroke-linejoin="round"/>
<path d="M36.9912 57.4137C40.5003 57.4137 43.3449 54.5691 43.3449 51.06C43.3449 47.551 40.5003 44.7064 36.9912 44.7064C33.4822 44.7064 30.6376 47.551 30.6376 51.06C30.6376 54.5691 33.4822 57.4137 36.9912 57.4137Z" stroke="#FFF1D6" stroke-width="5" stroke-linecap="round" stroke-linejoin="round"/>
<path d="M43.3448 51.06V25.6454" stroke="#FFF1D6" stroke-width="5" stroke-linecap="round" stroke-linejoin="round"/>
<path d="M52.4215 25.6454H43.3448V32.9068H52.4215V25.6454Z" stroke="#FFF1D6" stroke-width="5" stroke-linecap="round" stroke-linejoin="round"/>
</svg>
